HIERARCHY
ROOT Hip
{
	OFFSET 0 1.131 0.0052
	CHANNELS 6 Xposition Yposition Zposition Xrotation Yrotation Zrotation
	JOINT Abdomen
	{
		OFFSET 0 -0.047353 -0.05
		CHANNELS 3 Xrotation Zrotation Yrotation
		JOINT Chest
		{
			OFFSET 0 0.132153 0.007439
			CHANNELS 3 Xrotation Zrotation Yrotation
			JOINT Neck
			{
				OFFSET 0 0.3078 0.006161
				CHANNELS 3 Xrotation Zrotation Yrotation
				JOINT Head_comp
				{
					OFFSET 0 0.0884 0.013
					CHANNELS 3 Xrotation Yrotation Zrotation
					End Site
					{
						OFFSET -0 0.156 0.0624
					}
				}
			}
			JOINT Left_Collar
			{
				OFFSET 0.02282 0.250342 0.017193
				CHANNELS 2 Yrotation Zrotation
				JOINT Left_Shoulder
				{
					OFFSET 0.15421 0 0
					CHANNELS 3 Xrotation Yrotation Zrotation
					JOINT Left_Forearm
					{
						OFFSET 0.265212 0 0
						CHANNELS 2 Yrotation Xrotation
						JOINT Left_Hand
						{
							OFFSET 0.27571 0 0
							CHANNELS 2 Zrotation Yrotation
							JOINT L1ProxPhalanx
							{
								OFFSET 0.014142 0.001733 0.014142
								CHANNELS 3 Yrotation Zrotation Xrotation
								JOINT L1MidPhalanx
								{
									OFFSET 0.04 0 0
									CHANNELS 1 Zrotation
									JOINT L1DistPhalanx
									{
										OFFSET 0.035 0 0
										CHANNELS 1 Zrotation
										End Site
										{
											OFFSET 0.029 -0 -0
										}
									}
								}
							}
							JOINT L2ProxPhalanx
							{
								OFFSET 0.0821037 0.001578 0.0219996
								CHANNELS 2 Yrotation Zrotation
								JOINT L2MidPhalanx
								{
									OFFSET 0.04 0 0
									CHANNELS 1 Zrotation
									JOINT L2DistPhalanx
									{
										OFFSET 0.028 0 0
										CHANNELS 1 Zrotation
										End Site
										{
											OFFSET 0.02 -0 -0
										}
									}
								}
							}
							JOINT L3ProxPhalanx
							{
								OFFSET 0.083 0 0
								CHANNELS 2 Yrotation Zrotation
								JOINT L3MidPhalanx
								{
									OFFSET 0.053 0 0
									CHANNELS 1 Zrotation
									JOINT L3DistPhalanx
									{
										OFFSET 0.03 0 0
										CHANNELS 1 Zrotation
										End Site
										{
											OFFSET 0.023 -0 -0
										}
									}
								}
							}
							JOINT L4ProxPhalanx
							{
								OFFSET 0.077274 -0.000761 -0.0207055
								CHANNELS 2 Yrotation Zrotation
								JOINT L4MidPhalanx
								{
									OFFSET 0.05 0 0
									CHANNELS 1 Zrotation
									JOINT L4DistPhalanx
									{
										OFFSET 0.03 0 0
										CHANNELS 1 Zrotation
										End Site
										{
											OFFSET 0.023 -0 -0
										}
									}
								}
							}
							JOINT L5ProxPhalanx
							{
								OFFSET 0.0675499 -0.001644 -0.039
								CHANNELS 2 Yrotation Zrotation
								JOINT L5MidPhalanx
								{
									OFFSET 0.04 0 0
									CHANNELS 1 Zrotation
									JOINT L5DistPhalanx
									{
										OFFSET 0.021 0 0
										CHANNELS 1 Zrotation
										End Site
										{
											OFFSET 0.022 -0 -0
										}
									}
								}
							}
						}
					}
				}
			}
			JOINT Right_Collar
			{
				OFFSET -0.02282 0.250342 0.017193
				CHANNELS 2 Yrotation Zrotation
				JOINT Right_Shoulder
				{
					OFFSET -0.15421 0 0
					CHANNELS 3 Xrotation Yrotation Zrotation
					JOINT Right_Forearm
					{
						OFFSET -0.265212 0 0
						CHANNELS 2 Yrotation Xrotation
						JOINT Right_Hand
						{
							OFFSET -0.27571 3e-006 0
							CHANNELS 2 Zrotation Yrotation
							JOINT R1ProxPhalanx
							{
								OFFSET -0.014142 0.001733 0.014142
								CHANNELS 3 Yrotation Zrotation Xrotation
								JOINT R1MidPhalanx
								{
									OFFSET -0.04 0 0
									CHANNELS 1 Zrotation
									JOINT R1DistPhalanx
									{
										OFFSET -0.035 0 0
										CHANNELS 1 Zrotation
										End Site
										{
											OFFSET -0.029 -0 -0
										}
									}
								}
							}
							JOINT R2ProxPhalanx
							{
								OFFSET -0.0821037 0.001578 0.0219996
								CHANNELS 2 Yrotation Zrotation
								JOINT R2MidPhalanx
								{
									OFFSET -0.04 0 0
									CHANNELS 1 Zrotation
									JOINT R2DistPhalanx
									{
										OFFSET -0.028 0 0
										CHANNELS 1 Zrotation
										End Site
										{
											OFFSET -0.02 -0 -0
										}
									}
								}
							}
							JOINT R3ProxPhalanx
							{
								OFFSET -0.083 0 0
								CHANNELS 2 Yrotation Zrotation
								JOINT R3MidPhalanx
								{
									OFFSET -0.053 0 0
									CHANNELS 1 Zrotation
									JOINT R3DistPhalanx
									{
										OFFSET -0.03 0 0
										CHANNELS 1 Zrotation
										End Site
										{
											OFFSET -0.023 -0 -0
										}
									}
								}
							}
							JOINT R4ProxPhalanx
							{
								OFFSET -0.077274 -0.000761 -0.0207055
								CHANNELS 2 Yrotation Zrotation
								JOINT R4MidPhalanx
								{
									OFFSET -0.05 0 0
									CHANNELS 1 Zrotation
									JOINT R4DistPhalanx
									{
										OFFSET -0.03 0 0
										CHANNELS 1 Zrotation
										End Site
										{
											OFFSET -0.023 -0 -0
										}
									}
								}
							}
							JOINT R5ProxPhalanx
							{
								OFFSET -0.0675499 -0.001644 -0.039
								CHANNELS 2 Yrotation Zrotation
								JOINT R5MidPhalanx
								{
									OFFSET -0.04 0 0
									CHANNELS 1 Zrotation
									JOINT R5DistPhalanx
									{
										OFFSET -0.021 0 0
										CHANNELS 1 Zrotation
										End Site
										{
											OFFSET -0.022 -0 -0
										}
									}
								}
							}
						}
					}
				}
			}
		}
	}
	JOINT Left_Thigh
	{
		OFFSET 0.1118 -0.1612 -0.0442
		CHANNELS 3 Xrotation Zrotation Yrotation
		JOINT Left_Shin
		{
			OFFSET 0 -0.477856 0
			CHANNELS 1 Xrotation
			JOINT Left_Foot
			{
				OFFSET 0 -0.431952 0
				CHANNELS 2 Xrotation Zrotation
				JOINT Left_Toe
				{
					OFFSET 0 -0.0442 0.119
					CHANNELS 1 Xrotation
					End Site
					{
						OFFSET -0 -0 0.07
					}
				}
			}
		}
	}
	JOINT Right_Thigh
	{
		OFFSET -0.1118 -0.1612 -0.0442
		CHANNELS 3 Xrotation Zrotation Yrotation
		JOINT Right_Shin
		{
			OFFSET 0 -0.477856 0
			CHANNELS 1 Xrotation
			JOINT Right_Foot
			{
				OFFSET 0 -0.431952 0
				CHANNELS 2 Xrotation Zrotation
				JOINT Right_Toe
				{
					OFFSET 0 -0.0442 0.119
					CHANNELS 1 Xrotation
					End Site
					{
						OFFSET -0 -0 0.07
					}
				}
			}
		}
	}
}
MOTION
Frames: 10
Frame Time: 0.009975
-0.097806 -0.060109 0.0431236 1.34019e-012 2.2951e-008 -5.10988e-006 0 -0 0 0 -0 0 0 -0 0 -0.712403 0.280723 1.80626e-012 7.54093 -33.3031 13.6397 -8.85952 -29.8817 -98.4498 -1.27426 -8.70357 0.404909 -27.5605 -21.5864 106.421 -7.48048 -7.22872 0.359187 -7.00922 -0.766388 -1.05378 4.72541 -4.46271 -1.39298 -3.41729 8.71841 0.0688695 -13.7112 -8.22532 12.9011 1.57409 -20.5968 -30.2417 10.0028 21.6077 -19.3198 26.7547 30.8464 29.1825 8.34223 -4.47901 -7.77447 42.7051 45.8714 94.7314 18.8865 16.9847 -0.51629 32.1706 28.1373 23.8229 -3.88721 35.2479 36.9179 28.3332 -6.87128 29.597 61.2287 7.97914 -23.2886 9.92307 104.674 -17.2145 0.248309 -0.881314 -0.00381937 0.0240216 -0.272302 0.881328 0 0.259716 -0.881313 -0.00399481 2.41484e-006 -0.259687 0.881327 0 
-0.0977856 -0.0601098 0.043225 -2.90129e-012 2.33765e-008 -5.10988e-006 0 -0 0 0 -0 0 0 -0 0 -0.712412 0.280641 1.36693e-012 7.54093 -33.3031 13.6397 -8.85952 -29.8817 -98.4498 -1.27426 -8.70357 0.404909 -27.5605 -21.5864 106.421 -7.48048 -7.22872 0.359187 -7.00922 -0.766388 -1.05378 4.72541 -4.46271 -1.39298 -3.41729 8.71841 0.0688695 -13.7112 -8.22532 12.9011 1.57409 -20.5968 -30.2417 9.7497 21.6609 -19.1254 26.6353 30.9289 29.7356 8.12878 -4.83767 -7.71194 59.7535 28.9431 81.8169 18.2698 15.2351 6.45926 16.0988 28.8313 18.8769 4.30596 30.3324 29.0247 23.5747 1.81367 34.2751 40.7185 8.7457 -9.69485 28.1716 75.2841 -28.4691 0.254701 -0.882595 -0.00392338 0.0240216 -0.278693 0.882609 0 0.266108 -0.882594 -0.00409908 1.70755e-006 -0.266078 0.882609 0 
-0.0977787 -0.0601104 0.0433373 -1.7905e-012 2.40962e-008 -5.10987e-006 0 -0 0 0 -0 0 0 -0 0 -0.712422 0.280598 4.8012e-013 7.54093 -33.3031 13.6397 -8.85952 -29.8817 -98.4498 -1.27426 -8.70357 0.404909 -27.5605 -21.5864 106.421 -7.48048 -7.22872 0.359187 -7.00922 -0.766388 -1.05378 4.72541 -4.46271 -1.39298 -3.41729 8.71841 0.0688695 -13.7112 -8.22532 12.9011 1.57409 -20.5968 -30.2417 9.45084 21.7207 -18.9189 26.4779 31.0423 30.5272 7.84227 -5.1405 -7.74347 63.8003 22.7555 77.3933 18.2727 14.5279 11.5442 11.021 30.8746 16.4066 9.29442 29.515 25.3279 21.6429 7.21376 37.5212 30.5298 7.73482 0.499524 37.0807 66.5777 -43.146 0.261775 -0.883031 -0.00403431 0.0240216 -0.285765 0.883045 0 0.27318 -0.88303 -0.00421008 2.54851e-006 -0.27315 0.883045 0 
-0.097788 -0.0601108 0.0434505 1.76475e-014 2.46391e-008 -5.10987e-006 0 -0 0 0 -0 0 0 -0 0 -0.712433 0.280585 1.05068e-013 7.54093 -33.3031 13.6397 -8.85952 -29.8817 -98.4498 -1.27426 -8.70357 0.404909 -27.5605 -21.5864 106.421 -7.48048 -7.22872 0.359187 -7.00922 -0.766388 -1.05378 4.72541 -4.46271 -1.39298 -3.41729 8.71841 0.0688695 -13.7112 -8.22532 12.9011 1.57409 -20.5968 -30.2417 9.13832 21.7629 -18.708 26.3382 31.1957 31.5443 7.50873 -5.40764 -7.84958 53.6145 36.1248 82.431 19.1923 15.5946 9.46473 22.5919 31.8705 19.1232 5.65376 33.5751 29.5232 24.1699 3.71298 35.5261 40.8173 8.1145 -3.83701 27.5747 87.0899 -46.9873 0.268903 -0.882445 -0.0041414 0.0240216 -0.292893 0.882459 0 0.280308 -0.882444 -0.00431706 1.7417e-006 -0.280277 0.882459 0 
-0.0977991 -0.0601113 0.0435925 1.32939e-012 2.53742e-008 -5.10987e-006 0 -0 0 0 -0 0 0 -0 0 -0.712444 0.280589 -3.58368e-013 7.54093 -33.3031 13.6397 -8.85952 -29.8817 -98.4498 -1.27426 -8.70357 0.404909 -27.5605 -21.5864 106.421 -7.48048 -7.22872 0.359187 -7.00922 -0.766388 -1.05378 4.72541 -4.46271 -1.39298 -3.41729 8.71841 0.0688695 -13.7112 -8.22532 12.9011 1.57409 -20.5968 -30.2417 8.76217 21.8038 -18.5356 26.1168 31.4305 32.8074 7.22081 -5.63812 -7.9724 54.5067 35.3671 83.4035 17.7704 13.3456 8.32857 20.8075 27.7597 17.0907 4.33939 28.5624 24.8343 20.7308 2.95687 31.7699 33.2363 4.99453 -3.98605 26.8238 80.3378 -53.9619 0.277843 -0.881746 -0.00427571 0.0240216 -0.301832 0.881762 0 0.289249 -0.881746 -0.00445124 8.32429e-007 -0.289216 0.881762 0 
-0.0978069 -0.0601121 0.0437542 -2.68929e-013 2.62407e-008 -5.10986e-006 0 -0 0 0 -0 0 0 -0 0 -0.712456 0.280605 -4.96107e-013 7.54093 -33.3031 13.6397 -8.85952 -29.8817 -98.4498 -1.27426 -8.70357 0.404909 -27.5605 -21.5864 106.421 -7.48048 -7.22872 0.359187 -7.00922 -0.766388 -1.05378 4.72541 -4.46271 -1.39298 -3.41729 8.71841 0.0688695 -13.7112 -8.22532 12.9011 1.57409 -20.5968 -30.2417 8.34865 21.8402 -18.3487 25.7568 31.7089 34.411 6.99162 -5.86278 -8.13708 56.2819 37.4223 90.2834 15.1883 11.1113 3.76223 15.27 14.6131 10.3217 1.25454 14.409 14.3941 13.2085 0.297576 14.2088 21.7199 3.18289 -9.48548 11.8827 73.0336 -51.6986 0.288031 -0.881256 -0.00443003 0.0240216 -0.312018 0.881272 0 0.299437 -0.881255 -0.00460545 8.79387e-007 -0.299402 0.881272 0 
-0.0978079 -0.0601131 0.0439459 -2.12404e-012 2.71984e-008 -5.10986e-006 0 -0 0 0 -0 0 0 -0 0 -0.712473 0.280584 2.67198e-012 7.54093 -33.3031 13.6397 -8.85952 -29.8817 -98.4498 -1.27426 -8.70357 0.404909 -27.5605 -21.5864 106.421 -7.48048 -7.22872 0.359187 -7.00922 -0.766388 -1.05378 4.72541 -4.46271 -1.39298 -3.41729 8.71841 0.0688695 -13.7112 -8.22532 12.9011 1.57409 -20.5968 -30.2417 7.85775 21.8732 -18.0603 25.3816 31.9815 36.3823 6.74702 -6.15652 -8.33896 47.651 35.849 98.3476 10.0904 8.39351 -0.672175 8.56431 4.92679 6.88685 -1.44721 2.89148 7.20095 8.86073 -2.40078 -0.277464 12.7456 6.60658 -13.6032 -1.44902 41.2143 -18.4661 0.300104 -0.881194 -0.00461542 0.0240216 -0.32409 0.881211 0 0.31151 -0.881193 -0.00479084 1.16516e-006 -0.311475 0.881211 0 
-0.0978062 -0.0601144 0.0441734 -2.45526e-012 2.84078e-008 -5.10985e-006 0 -0 0 0 -0 0 0 -0 0 -0.712492 0.280557 -4.65978e-013 7.54093 -33.3031 13.6397 -8.85952 -29.8817 -98.4498 -1.27426 -8.70357 0.404909 -27.5605 -21.5864 106.421 -7.48048 -7.22872 0.359187 -7.00922 -0.766388 -1.05378 4.72541 -4.46271 -1.39298 -3.41729 8.71841 0.0688695 -13.7112 -8.22532 12.9011 1.57409 -20.5968 -30.2417 7.27042 21.9105 -17.7234 24.9704 32.2761 38.671 6.52044 -6.52602 -8.45237 38.7248 30.3644 98.5249 5.77388 5.19227 -1.4975 5.22512 4.82888 8.26216 -2.16074 0.338808 5.70774 8.72683 -2.96211 -0.353591 7.18379 7.7838 -12.9835 -0.628402 8.40748 6.64775 0.314431 -0.881302 -0.00483634 0.0240216 -0.338415 0.88132 0 0.325837 -0.881301 -0.00501178 2.41484e-006 -0.325801 0.88132 0 
-0.0978108 -0.0601154 0.0443634 -4.69395e-013 2.97658e-008 -5.10984e-006 0 -0 0 0 -0 0 0 -0 0 -0.712505 0.280635 -2.37869e-012 7.54093 -33.3031 13.6397 -8.85952 -29.8817 -98.4498 -1.27426 -8.70357 0.404909 -27.5605 -21.5864 106.421 -7.48048 -7.22872 0.359187 -7.00922 -0.766388 -1.05378 4.72541 -4.46271 -1.39298 -3.41729 8.71841 0.0688695 -13.7112 -8.22532 12.9011 1.57409 -20.5968 -30.2417 6.91997 21.8257 -17.2275 24.3555 32.4907 40.9139 6.38387 -6.68375 -8.42672 38.5193 29.9959 97.9029 5.87523 5.43256 -1.45642 5.08874 5.17522 8.32885 -2.05589 0.173856 6.03275 9.00731 -3.15327 -0.0498689 7.20921 7.85974 -12.9318 -0.340253 8.00886 6.20176 0.326398 -0.88101 -0.00501874 0.0240216 -0.350381 0.881029 0 0.337804 -0.881009 -0.00519412 1.70755e-006 -0.337765 0.881029 0 
-0.0978114 -0.0601163 0.0445134 1.00971e-014 3.09696e-008 -5.10983e-006 0 -0 0 0 -0 0 0 -0 0 -0.712515 0.280707 3.56306e-013 7.54093 -33.3031 13.6397 -8.85952 -29.8817 -98.4498 -1.27426 -8.70357 0.404909 -27.5605 -21.5864 106.421 -7.48048 -7.22872 0.359187 -7.00922 -0.766388 -1.05378 4.72541 -4.46271 -1.39298 -3.41729 8.71841 0.0688695 -13.7112 -8.22532 12.9011 1.57409 -20.5968 -30.2417 6.84221 21.5971 -16.5197 23.605 32.601 42.9472 6.31212 -6.60864 -8.33202 38.5076 29.9559 97.4153 6.28544 5.89613 -1.16286 5.35317 5.6556 8.5566 -2.01448 0.622263 6.56817 9.39237 -3.26362 0.569608 7.71269 8.18008 -12.8291 0.205114 8.5556 6.6815 0.335847 -0.880973 -0.00516384 0.0240216 -0.359829 0.880993 0 0.347253 -0.880972 -0.00533921 1.70755e-006 -0.347214 0.880993 0 
